<svg xmlns="http://www.w3.org/2000/svg" width="1080" height="360" viewBox="0 0 1080 360" role="img" aria-labelledby="title desc">
<title id="title">Bishwas Shrestha — full-stack developer, Kathmandu</title>
<desc id="desc">A playful studio-style banner with lime and lilac accents, a smiling code window, and the words: Thoughtful interfaces. Useful things.</desc>
<rect width="1080" height="360" rx="24" fill="#F6F5EE"/>
<g font-family="Arial, Helvetica, sans-serif">
<circle cx="44" cy="43" r="5" fill="#94AB63"/>
<text x="60" y="48" font-size="12" font-weight="700" letter-spacing="2.3" fill="#636C63">BISHWAS / PERSONAL WORKSPACE</text>
<text x="42" y="128" font-size="62" font-weight="700" letter-spacing="-2.5" fill="#222A25">Bishwas Shrestha<tspan fill="#94AB63">.</tspan></text>
<text x="45" y="178" font-size="21" fill="#222A25">Thoughtful interfaces. Useful things.</text>
<text x="45" y="211" font-size="16" fill="#636C63">Full-stack developer · Kathmandu, Nepal</text>
<rect x="44" y="256" width="138" height="34" rx="17" fill="#DBEDB1"/>
<text x="113" y="278" text-anchor="middle" font-size="12" font-weight="700" fill="#283322">BUILD / LEARN / REPEAT</text>
<text x="44" y="329" font-size="11" letter-spacing="1.7" fill="#636C63">A LITTLE CURIOUS. ALWAYS BUILDING.</text>
<path d="M721 55V303" stroke="#DCDDD2" stroke-dasharray="3 7"/>
<g transform="translate(760 71) rotate(-6 129 98)">
<rect x="9" y="12" width="255" height="190" rx="17" fill="#DCDDD2"/>
<rect width="255" height="190" rx="17" fill="#FFFFFF" stroke="#222A25" stroke-width="1.5"/>
<path d="M0 36H255" stroke="#222A25" stroke-width="1.5"/>
<circle cx="19" cy="18" r="4" fill="#C5B7EB"/><circle cx="34" cy="18" r="4" fill="#DBEDB1"/><circle cx="49" cy="18" r="4" fill="#EDC8B2"/>
<text x="230" y="23" text-anchor="end" font-size="10" fill="#636C63" font-family="monospace">hello.world</text>
<path d="M88 79L67 101L88 123M166 79L187 101L166 123M139 71L116 131" fill="none" stroke="#222A25" stroke-width="5" stroke-linecap="round" stroke-linejoin="round"/>
<path d="M109 153Q127 169 145 153" fill="none" stroke="#222A25" stroke-width="3" stroke-linecap="round"/>
</g>
<g transform="translate(981 60)"><path d="M0-24L7-7L24 0L7 7L0 24L-7 7L-24 0L-7-7Z" fill="#C5B7EB" stroke="#222A25" stroke-width="1.3"/></g>
<g transform="translate(793 264) rotate(8)"><rect width="190" height="34" rx="4" fill="#C5B7EB"/><text x="95" y="22" text-anchor="middle" font-family="monospace" font-size="12" fill="#282332">small details, big care.</text></g>
<path d="M998 299Q1042 278 1034 234M1034 234L1024 247M1034 234L1046 243" fill="none" stroke="#636C63" stroke-width="1.5" stroke-linecap="round"/>
</g></svg>